PathFileType	4	(X/Y/Z)	/Users/itak/Documents/Research/Walk-IL/dataset/trc/00192_00008.trc
DataRate	CameraRate	NumFrames	NumMarkers	Units	OrigDataRate	OrigDataStartFrame	OrigNumFrames
100.000000	100.000000	4	53	mm	100.000000	0	794
Frame#	Time	RPSI			LPSI			L3			STRN			T10			C7			CLAV			RBAK			LBAK			LSHO			LUPA			LAEL			LAOL			LWTS			LWPS			LFRA			LIFD			LHPS			LHTS			RSHO			RUPA			RAEL			RAOL			RWTS			RWPS			RFRA			RIFD			RHTS			RHPS			RBHD			LFHD			RFHD			LBHD			LHIP			RHIP			RASI			LASI			LKNE			LTHI			LANK			LTIP			LTOE			LMT1			LMT5			LHEE			RKNE			RTHI			RANK			RTIP			RTOE			RMT1			RMT5			RHEE			
		X1	Y1	Z1	X2	Y2	Z2	X3	Y3	Z3	X4	Y4	Z4	X5	Y5	Z5	X6	Y6	Z6	X7	Y7	Z7	X8	Y8	Z8	X9	Y9	Z9	X10	Y10	Z10	X11	Y11	Z11	X12	Y12	Z12	X13	Y13	Z13	X14	Y14	Z14	X15	Y15	Z15	X16	Y16	Z16	X17	Y17	Z17	X18	Y18	Z18	X19	Y19	Z19	X20	Y20	Z20	X21	Y21	Z21	X22	Y22	Z22	X23	Y23	Z23	X24	Y24	Z24	X25	Y25	Z25	X26	Y26	Z26	X27	Y27	Z27	X28	Y28	Z28	X29	Y29	Z29	X30	Y30	Z30	X31	Y31	Z31	X32	Y32	Z32	X33	Y33	Z33	X34	Y34	Z34	X35	Y35	Z35	X36	Y36	Z36	X37	Y37	Z37	X38	Y38	Z38	X39	Y39	Z39	X40	Y40	Z40	X41	Y41	Z41	X42	Y42	Z42	X43	Y43	Z43	X44	Y44	Z44	X45	Y45	Z45	X46	Y46	Z46	X47	Y47	Z47	X48	Y48	Z48	X49	Y49	Z49	X50	Y50	Z50	X51	Y51	Z51	X52	Y52	Z52	X53	Y53	Z53	

1	0	339.5807495117188	1063.439453125	906.0659790039062	306.7006225585938	1063.133056640625	1025.564086914062	323.1221008300781	1101.129516601562	964.7713012695312	69.57938385009766	1310.941650390625	897.9124755859375	351.4454956054688	1260.019165039062	988.37255859375	281.7798767089844	1528.695068359375	986.7572021484375	92.08339691162109	1424.955688476562	914.2772827148438	382.2427062988281	1354.378540039062	899.1835327148438	256.4854125976562	1504.015502929688	1082.707275390625	158.8965606689453	1490.50341796875	1130.535522460938	166.4842834472656	1357.645263671875	1210.541748046875	141.1270599365234	1140.477172851562	1221.301513671875	209.8162536621094	1123.4462890625	1168.197631835938	34.94085693359375	913.8810424804688	1149.374755859375	98.30516815185547	889.4458618164062	1215.992431640625	118.2565307617188	1030.697509765625	1228.175048828125	39.87847900390625	756.5665893554688	1108.841430664062	77.42798614501953	821.279541015625	1204.213989257812	17.87564277648926	834.1032104492188	1166.326782226562	280.6830139160156	1508.719848632812	794.0599365234375	320.58935546875	1443.526489257812	731.5114135742188	337.3781127929688	1153.224365234375	677.032470703125	313.5123596191406	1144.194091796875	771.6190185546875	190.0398864746094	933.4886474609375	642.7279052734375	274.7145690917969	913.4348754882812	621.6663208007812	316.1759643554688	1082.9892578125	649.6203002929688	159.0803680419922	746.0680541992188	654.691650390625	163.6529388427734	841.3134155273438	623.6092529296875	243.7767639160156	831.4071044921875	613.3703002929688	248.0790557861328	1681.677612304688	974.3532104492188	74.29165649414062	1737.021728515625	855.7283935546875	198.9826507568359	1742.741943359375	819.16259765625	120.131477355957	1682.1982421875	1022.259094238281	179.9915313720703	999.3898315429688	1112.432739257812	227.2737731933594	1022.329895019531	747.8623046875	127.882209777832	1051.916137695312	777.2981567382812	70.40022277832031	1036.423461914062	1030.136352539062	172.8479919433594	502.974365234375	1084.292602539062	164.0821838378906	645.95654296875	1105.964965820312	251.3921813964844	41.93427658081055	1108.206420898438	209.9681701660156	281.9167785644531	1109.167602539062	29.87739562988281	45.24065780639648	1095.020141601562	77.25105285644531	46.53413009643555	1044.63623046875	146.0331115722656	35.92026138305664	1154.645751953125	297.5660095214844	40.37130737304688	1034.88525390625	172.5567932128906	523.0250854492188	763.2019653320312	158.9506530761719	793.2196655273438	720.3270874023438	257.7498474121094	39.76989364624023	771.3052368164062	158.3975830078125	400.5894775390625	779.084228515625	33.12507629394531	43.87236404418945	788.3847045898438	85.51881408691406	42.53868865966797	838.2896118164062	147.4395904541016	39.71083068847656	728.6824951171875	304.8625793457031	37.58663177490234	842.3592529296875	
2	0.01	339.416259765625	1063.447631835938	905.8544311523438	306.5271911621094	1063.141845703125	1025.347290039062	322.890625	1101.13330078125	964.5499267578125	69.40489196777344	1310.952880859375	897.6215209960938	351.3085021972656	1259.985717773438	988.1127319335938	281.6706848144531	1528.66259765625	986.3828125	91.99824523925781	1424.987548828125	913.9987182617188	382.1112060546875	1354.303588867188	898.8841552734375	256.3726806640625	1504.048583984375	1082.361938476562	158.8328247070312	1490.608642578125	1130.248168945312	166.3097686767578	1357.748901367188	1210.256591796875	140.9077758789062	1140.596313476562	1221.084594726562	209.55224609375	1123.496704101562	1168.025756835938	34.55080032348633	914.0519409179688	1149.130859375	97.8841552734375	889.5780639648438	1215.787475585938	117.9395446777344	1030.809814453125	1227.993408203125	39.24729537963867	756.7280883789062	1108.570678710938	76.86333465576172	821.4035034179688	1204.018920898438	17.35144424438477	834.3226928710938	1166.108764648438	280.5538940429688	1508.639282226562	793.7027587890625	320.4442443847656	1443.424438476562	731.183837890625	337.1435241699219	1153.054931640625	676.876953125	313.2708129882812	1144.084350585938	771.4684448242188	189.6788940429688	933.3740844726562	642.7597045898438	274.3734741210938	913.2440795898438	621.671630859375	315.9109802246094	1082.804809570312	649.5250854492188	158.6962432861328	745.9386596679688	654.8509521484375	163.3278503417969	841.1380615234375	623.7236938476562	243.3531188964844	831.2141723632812	613.4591064453125	248.0248107910156	1681.698974609375	973.8914794921875	74.07131958007812	1736.98828125	855.3873901367188	198.7710418701172	1742.699829101562	818.7265625	120.1077575683594	1682.267944335938	1021.915588378906	179.7798156738281	999.3999633789062	1112.238647460938	227.2005767822266	1022.277770996094	747.7164306640625	127.7222518920898	1051.903686523438	777.0703735351562	70.14634704589844	1036.427490234375	1029.906860351562	172.8032989501953	502.9884033203125	1084.248901367188	163.9842834472656	645.972900390625	1105.845092773438	251.420654296875	41.88654708862305	1108.269775390625	209.97021484375	281.9388122558594	1109.178344726562	29.90280532836914	45.2391242980957	1095.039184570312	77.25074005126953	46.57851409912109	1044.673828125	146.0174255371094	35.87256622314453	1154.706909179688	297.5792236328125	40.39142608642578	1034.92138671875	172.5283966064453	523.0123901367188	763.0943603515625	158.8677825927734	793.1934204101562	720.1356811523438	257.7461242675781	39.77440643310547	771.3154907226562	158.3502960205078	400.5820922851562	779.003662109375	33.12942123413086	43.87203598022461	788.3884887695312	85.56343078613281	42.52867126464844	838.3089599609375	147.4444427490234	39.72089004516602	728.6848754882812	304.8544006347656	37.58990859985352	842.3681640625	
3	0.02	339.1982421875	1063.454223632812	905.5775146484375	306.302978515625	1063.147705078125	1025.063232421875	322.6054382324219	1101.136352539062	964.2628784179688	69.20281219482422	1310.956909179688	897.2504272460938	351.1335754394531	1259.940795898438	987.77392578125	281.548828125	1528.618896484375	985.9051513671875	91.88417816162109	1425.019653320312	913.627685546875	381.9403686523438	1354.208984375	898.4972534179688	256.2224426269531	1504.089233398438	1081.920654296875	158.7471618652344	1490.737426757812	1129.864135742188	166.0956878662109	1357.87548828125	1209.890625	140.6468963623047	1140.745849609375	1220.804443359375	209.2213439941406	1123.55859375	1167.800415039062	34.07604598999023	914.2557983398438	1148.83935546875	97.36846923828125	889.7398071289062	1215.531982421875	117.5419845581055	1030.94970703125	1227.759399414062	38.50408554077148	756.905029296875	1108.2578125	76.17481231689453	821.55615234375	1203.78271484375	16.71767807006836	834.5863647460938	1165.842407226562	280.4026489257812	1508.531127929688	793.2450561523438	320.2606506347656	1443.286010742188	730.763916015625	336.8523254394531	1152.833740234375	676.676513671875	312.9701232910156	1143.946533203125	771.2779541015625	189.2301025390625	933.2255249023438	642.789794921875	273.9339294433594	913.0011596679688	621.6788330078125	315.5759582519531	1082.56640625	649.4006958007812	158.1928253173828	745.7738647460938	655.0526733398438	162.884033203125	840.9144287109375	623.8536376953125	242.8344116210938	830.9755859375	613.5696411132812	247.9626007080078	1681.72900390625	973.2960815429688	73.79141235351562	1736.944213867188	854.9581909179688	198.4867401123047	1742.645263671875	818.1660766601562	120.077522277832	1682.346557617188	1021.472900390625	179.5097961425781	999.4110107421875	1111.981567382812	227.0537872314453	1022.223876953125	747.4891357421875	127.5120544433594	1051.882446289062	776.7821655273438	69.84976959228516	1036.431518554688	1029.62109375	172.7443695068359	503.0070190429688	1084.189819335938	163.8619384765625	645.9923095703125	1105.693969726562	251.4532318115234	41.83133316040039	1108.34716796875	209.9665069580078	281.9680786132812	1109.191162109375	29.93244361877441	45.23558807373047	1095.063354492188	77.253662109375	46.6334114074707	1044.722900390625	146.0018310546875	35.81658172607422	1154.778930664062	297.5932006835938	40.4190673828125	1034.964477539062	172.48779296875	522.9959106445312	762.9490356445312	158.7273254394531	793.1583862304688	719.8890380859375	257.7427673339844	39.78104400634766	771.327880859375	158.2826995849609	400.5606994628906	778.8986206054688	33.13410186767578	43.87303924560547	788.3930053710938	85.59983062744141	42.52326583862305	838.3268432617188	147.447265625	39.73365020751953	728.6896362304688	304.8476867675781	37.59467697143555	842.3787231445312	
4	0.03	338.9306640625	1063.4560546875	905.2401123046875	306.0346069335938	1063.149047851562	1024.717651367188	322.2799072265625	1101.136962890625	963.9151000976562	68.98605346679688	1310.951171875	896.8123779296875	350.9241027832031	1259.884521484375	987.3645629882812	281.4228210449219	1528.565185546875	985.3397216796875	91.7406005859375	1425.048217773438	913.1703491210938	381.7349548339844	1354.098266601562	898.0338745117188	256.039794921875	1504.134643554688	1081.396484375	158.6384429931641	1490.879272460938	1129.38671875	165.8541107177734	1358.017578125	1209.453857421875	140.3574371337891	1140.917602539062	1220.4697265625	208.8405456542969	1123.62841796875	1167.525024414062	33.53929901123047	914.4800415039062	1148.518188476562	96.78726196289062	889.9228515625	1215.23779296875	117.0826034545898	1031.110961914062	1227.480102539062	37.69258117675781	757.0813598632812	1107.926513671875	75.40409088134766	821.7324829101562	1203.517211914062	16.00638771057129	834.8807983398438	1165.537353515625	280.2373352050781	1508.397094726562	792.6997680664062	320.0444641113281	1443.111938476562	730.263671875	336.5160522460938	1152.5654296875	676.436279296875	312.6225280761719	1143.784912109375	771.0531616210938	188.711181640625	933.0460205078125	642.8123168945312	273.4079284667969	912.7139282226562	621.6876831054688	315.1815795898438	1082.280151367188	649.2486572265625	157.5798034667969	745.5785522460938	655.2882690429688	162.3247375488281	840.6522827148438	623.98681640625	242.2459564208984	830.7009887695312	613.6961669921875	247.8920135498047	1681.768432617188	972.5838623046875	73.46328735351562	1736.89111328125	854.4581909179688	198.1337585449219	1742.580200195312	817.497802734375	120.0420303344727	1682.426391601562	1020.94677734375	179.1928253173828	999.4217529296875	1111.666381835938	226.8007202148438	1022.17822265625	747.1600341796875	127.2531890869141	1051.851928710938	776.4440307617188	69.53192901611328	1036.435546875	1029.289428710938	172.6710205078125	503.0291137695312	1084.114868164062	163.7193908691406	646.0133056640625	1105.515869140625	251.4873504638672	41.77397155761719	1108.432495117188	209.9544830322266	282.0032348632812	1109.20458984375	29.96379661560059	45.22956848144531	1095.09130859375	77.26040649414062	46.69609451293945	1044.78125	145.9911956787109	35.75725555419922	1154.855346679688	297.6063842773438	40.45424652099609	1035.012451171875	172.4338073730469	522.9755859375	762.768798828125	158.5236358642578	793.1144409179688	719.595947265625	257.7408142089844	39.78961563110352	771.34130859375	158.1929779052734	400.521484375	778.7708740234375	33.13916015625	43.87620162963867	788.3985595703125	85.62027740478516	42.52408981323242	838.3392333984375	147.4475555419922	39.74839782714844	728.6975708007812	304.8439025878906	37.60000610351562	842.3900146484375	
